<mxfile host="app.diagrams.net" agent="Mozilla/5.0 (Windows NT 10.0; Win64; x64) AppleWebKit/537.36 (KHTML, like Gecko) Chrome/135.0.0.0 Safari/537.36" version="26.2.12">
  <diagram name="第 1 页" id="Hf2eqCypcos7LBFq_nce">
    <mxGraphModel dx="775" dy="378" grid="1" gridSize="10" guides="1" tooltips="1" connect="1" arrows="1" fold="1" page="1" pageScale="1" pageWidth="827" pageHeight="1169" math="0" shadow="0">
      <root>
        <mxCell id="0" />
        <mxCell id="1" parent="0" />
        <mxCell id="e10JoEDO19rW0weVWdUU-27" value="" style="rounded=1;whiteSpace=wrap;html=1;fontFamily=Helvetica;fontSize=11;labelBackgroundColor=default;fillColor=#eeeeee;strokeColor=#36393d;dashed=1;dashPattern=8 8;" vertex="1" parent="1">
          <mxGeometry x="120" y="347.5" width="348" height="150" as="geometry" />
        </mxCell>
        <mxCell id="e10JoEDO19rW0weVWdUU-25" style="edgeStyle=none;shape=connector;rounded=0;orthogonalLoop=1;jettySize=auto;html=1;entryX=0;entryY=0.5;entryDx=0;entryDy=0;strokeColor=default;align=center;verticalAlign=middle;fontFamily=Helvetica;fontSize=11;fontColor=default;labelBackgroundColor=default;endArrow=classicThin;endFill=1;" edge="1" parent="1" source="WbX1VcM4DFkPwirWqkNb-6" target="e10JoEDO19rW0weVWdUU-8">
          <mxGeometry relative="1" as="geometry" />
        </mxCell>
        <mxCell id="WbX1VcM4DFkPwirWqkNb-6" value="像素级融合" style="rounded=0;whiteSpace=wrap;html=1;fontFamily=宋体;fontSource=https%3A%2F%2Ffonts.googleapis.com%2Fcss%3Ffamily%3D%25E5%25AE%258B%25E4%25BD%2593;" parent="1" vertex="1">
          <mxGeometry x="330" y="361" width="23" height="123" as="geometry" />
        </mxCell>
        <mxCell id="e10JoEDO19rW0weVWdUU-10" style="rounded=0;orthogonalLoop=1;jettySize=auto;html=1;entryX=0;entryY=0.5;entryDx=0;entryDy=0;endArrow=classicThin;endFill=1;" edge="1" parent="1" source="e10JoEDO19rW0weVWdUU-1" target="e10JoEDO19rW0weVWdUU-4">
          <mxGeometry relative="1" as="geometry" />
        </mxCell>
        <mxCell id="e10JoEDO19rW0weVWdUU-1" value="源图像&lt;font face=&quot;Times New Roman&quot;&gt;1&lt;/font&gt;" style="rounded=0;whiteSpace=wrap;html=1;fontFamily=宋体;fontSource=https%3A%2F%2Ffonts.googleapis.com%2Fcss%3Ffamily%3D%25E5%25AE%258B%25E4%25BD%2593;fillColor=#dae8fc;strokeColor=#6c8ebf;" vertex="1" parent="1">
          <mxGeometry x="138" y="360" width="68" height="26" as="geometry" />
        </mxCell>
        <mxCell id="e10JoEDO19rW0weVWdUU-20" style="edgeStyle=none;shape=connector;rounded=0;orthogonalLoop=1;jettySize=auto;html=1;entryX=0;entryY=0.5;entryDx=0;entryDy=0;strokeColor=default;align=center;verticalAlign=middle;fontFamily=Helvetica;fontSize=11;fontColor=default;labelBackgroundColor=default;endArrow=classicThin;endFill=1;" edge="1" parent="1" source="e10JoEDO19rW0weVWdUU-2" target="e10JoEDO19rW0weVWdUU-5">
          <mxGeometry relative="1" as="geometry" />
        </mxCell>
        <mxCell id="e10JoEDO19rW0weVWdUU-2" value="源图像&lt;font face=&quot;Times New Roman&quot;&gt;2&lt;/font&gt;" style="rounded=0;whiteSpace=wrap;html=1;fontFamily=宋体;fontSource=https%3A%2F%2Ffonts.googleapis.com%2Fcss%3Ffamily%3D%25E5%25AE%258B%25E4%25BD%2593;fillColor=#d5e8d4;strokeColor=#82b366;" vertex="1" parent="1">
          <mxGeometry x="138" y="400" width="68" height="26" as="geometry" />
        </mxCell>
        <mxCell id="e10JoEDO19rW0weVWdUU-21" style="edgeStyle=none;shape=connector;rounded=0;orthogonalLoop=1;jettySize=auto;html=1;entryX=0;entryY=0.5;entryDx=0;entryDy=0;strokeColor=default;align=center;verticalAlign=middle;fontFamily=Helvetica;fontSize=11;fontColor=default;labelBackgroundColor=default;endArrow=classicThin;endFill=1;" edge="1" parent="1" source="e10JoEDO19rW0weVWdUU-3" target="e10JoEDO19rW0weVWdUU-6">
          <mxGeometry relative="1" as="geometry" />
        </mxCell>
        <mxCell id="e10JoEDO19rW0weVWdUU-3" value="源图像&lt;font face=&quot;Times New Roman&quot;&gt;n&lt;/font&gt;" style="rounded=0;whiteSpace=wrap;html=1;fontFamily=宋体;fontSource=https%3A%2F%2Ffonts.googleapis.com%2Fcss%3Ffamily%3D%25E5%25AE%258B%25E4%25BD%2593;fillColor=#ffe6cc;strokeColor=#d79b00;" vertex="1" parent="1">
          <mxGeometry x="138" y="457" width="68" height="26" as="geometry" />
        </mxCell>
        <mxCell id="e10JoEDO19rW0weVWdUU-4" value="预处理" style="rounded=0;whiteSpace=wrap;html=1;fontFamily=宋体;fontSource=https%3A%2F%2Ffonts.googleapis.com%2Fcss%3Ffamily%3D%25E5%25AE%258B%25E4%25BD%2593;" vertex="1" parent="1">
          <mxGeometry x="230" y="360" width="68" height="26" as="geometry" />
        </mxCell>
        <mxCell id="e10JoEDO19rW0weVWdUU-5" value="预处理" style="rounded=0;whiteSpace=wrap;html=1;fontFamily=宋体;fontSource=https%3A%2F%2Ffonts.googleapis.com%2Fcss%3Ffamily%3D%25E5%25AE%258B%25E4%25BD%2593;" vertex="1" parent="1">
          <mxGeometry x="230" y="400" width="68" height="26" as="geometry" />
        </mxCell>
        <mxCell id="e10JoEDO19rW0weVWdUU-6" value="预处理" style="rounded=0;whiteSpace=wrap;html=1;fontFamily=宋体;fontSource=https%3A%2F%2Ffonts.googleapis.com%2Fcss%3Ffamily%3D%25E5%25AE%258B%25E4%25BD%2593;" vertex="1" parent="1">
          <mxGeometry x="230" y="457" width="68" height="26" as="geometry" />
        </mxCell>
        <mxCell id="e10JoEDO19rW0weVWdUU-7" value="" style="endArrow=none;dashed=1;html=1;dashPattern=1 3;strokeWidth=2;rounded=0;strokeColor=default;align=center;verticalAlign=middle;fontFamily=宋体;fontSize=11;fontColor=default;labelBackgroundColor=default;exitX=1;exitY=0.5;exitDx=0;exitDy=0;fontSource=https%3A%2F%2Ffonts.googleapis.com%2Fcss%3Ffamily%3D%25E5%25AE%258B%25E4%25BD%2593;" edge="1" parent="1">
          <mxGeometry width="50" height="50" relative="1" as="geometry">
            <mxPoint x="162.5" y="444" as="sourcePoint" />
            <mxPoint x="181.5" y="444" as="targetPoint" />
          </mxGeometry>
        </mxCell>
        <mxCell id="e10JoEDO19rW0weVWdUU-26" style="edgeStyle=none;shape=connector;rounded=0;orthogonalLoop=1;jettySize=auto;html=1;entryX=0;entryY=0.5;entryDx=0;entryDy=0;strokeColor=default;align=center;verticalAlign=middle;fontFamily=Helvetica;fontSize=11;fontColor=default;labelBackgroundColor=default;endArrow=classicThin;endFill=1;" edge="1" parent="1" source="e10JoEDO19rW0weVWdUU-8" target="e10JoEDO19rW0weVWdUU-9">
          <mxGeometry relative="1" as="geometry" />
        </mxCell>
        <mxCell id="e10JoEDO19rW0weVWdUU-8" value="特征提取" style="rounded=0;whiteSpace=wrap;html=1;fontFamily=宋体;fontSource=https%3A%2F%2Ffonts.googleapis.com%2Fcss%3Ffamily%3D%25E5%25AE%258B%25E4%25BD%2593;" vertex="1" parent="1">
          <mxGeometry x="376" y="361" width="23" height="123" as="geometry" />
        </mxCell>
        <mxCell id="e10JoEDO19rW0weVWdUU-9" value="视觉任务" style="rounded=0;whiteSpace=wrap;html=1;fontFamily=宋体;fontSource=https%3A%2F%2Ffonts.googleapis.com%2Fcss%3Ffamily%3D%25E5%25AE%258B%25E4%25BD%2593;" vertex="1" parent="1">
          <mxGeometry x="421" y="361" width="23" height="123" as="geometry" />
        </mxCell>
        <mxCell id="e10JoEDO19rW0weVWdUU-22" style="edgeStyle=none;shape=connector;rounded=0;orthogonalLoop=1;jettySize=auto;html=1;entryX=-0.048;entryY=0.108;entryDx=0;entryDy=0;entryPerimeter=0;strokeColor=default;align=center;verticalAlign=middle;fontFamily=Helvetica;fontSize=11;fontColor=default;labelBackgroundColor=default;endArrow=classicThin;endFill=1;" edge="1" parent="1" source="e10JoEDO19rW0weVWdUU-4" target="WbX1VcM4DFkPwirWqkNb-6">
          <mxGeometry relative="1" as="geometry" />
        </mxCell>
        <mxCell id="e10JoEDO19rW0weVWdUU-23" style="edgeStyle=none;shape=connector;rounded=0;orthogonalLoop=1;jettySize=auto;html=1;entryX=-0.106;entryY=0.429;entryDx=0;entryDy=0;entryPerimeter=0;strokeColor=default;align=center;verticalAlign=middle;fontFamily=Helvetica;fontSize=11;fontColor=default;labelBackgroundColor=default;endArrow=classicThin;endFill=1;" edge="1" parent="1">
          <mxGeometry relative="1" as="geometry">
            <mxPoint x="298" y="413.8753657845883" as="sourcePoint" />
            <mxPoint x="329" y="413.76699999999994" as="targetPoint" />
          </mxGeometry>
        </mxCell>
        <mxCell id="e10JoEDO19rW0weVWdUU-24" style="edgeStyle=none;shape=connector;rounded=0;orthogonalLoop=1;jettySize=auto;html=1;entryX=-0.031;entryY=0.896;entryDx=0;entryDy=0;entryPerimeter=0;strokeColor=default;align=center;verticalAlign=middle;fontFamily=Helvetica;fontSize=11;fontColor=default;labelBackgroundColor=default;endArrow=classicThin;endFill=1;" edge="1" parent="1" source="e10JoEDO19rW0weVWdUU-6" target="WbX1VcM4DFkPwirWqkNb-6">
          <mxGeometry relative="1" as="geometry" />
        </mxCell>
      </root>
    </mxGraphModel>
  </diagram>
</mxfile>
